# xmcd
#
# Track frame offsets:
#	150
#	21324
#	38292
#	55350
#	71875
#	87941
#	104848
#	123017
#	140205
#	153290
#	171644
#	188375
#	200891
#	215451
#	229499
#	239282
#	252086
#	267897
#	289434
#
# Disc length: 4074 seconds
#
# Revision: 1
# Processed by: cddbd v1.5.2PL0 Copyright (c) Steve Scherf et al.
# Submitted via: audiograbber 1.83.01
#
DISCID=250fe813
DTITLE=Männergsangverein Bedburg - Mit nem kleinen Stückchen Glück
DYEAR=1900
DGENRE=Chor
TTITLE0=All i ask of you
TTITLE1=Denk an mich
TTITLE2=I don't know how to love him
TTITLE3=Tonight
TTITLE4=Memory
TTITLE5=Ich fühl wie du
TTITLE6=Gold von den Sternen
TTITLE7=Die Gott lieben
TTITLE8=Nimm o Herr die Gaben
TTITLE9=Meine Zeit steht in deinen Händen
TTITLE10=Du hast ganz leis
TTITLE11=Frische Segenswünsche
TTITLE12=Go down moses
TTITLE13=Wäre das nicht wunderschön?
TTITLE14=Mit nem kleinen Stückchen Glück
TTITLE15=Ein Freund ein guter Freund
TTITLE16=Ming eetste Fründin
TTITLE17=Dat Wasser vun Kölle
TTITLE18=In unserem Veedel
EXTD=
EXTT0=
EXTT1=
EXTT2=
EXTT3=
EXTT4=
EXTT5=
EXTT6=
EXTT7=
EXTT8=
EXTT9=
EXTT10=
EXTT11=
EXTT12=
EXTT13=
EXTT14=
EXTT15=
EXTT16=
EXTT17=
EXTT18=
PLAYORDER=
